<svg xmlns="http://www.w3.org/2000/svg" viewBox="0 0 1200 340" width="1200" height="340">
<defs><linearGradient id="gold" gradientUnits="userSpaceOnUse" x1="430" y1="120" x2="610" y2="900"><stop offset="0" stop-color="#FBE79A"/><stop offset="0.45" stop-color="#EFC25C"/><stop offset="0.75" stop-color="#D9A23C"/><stop offset="1" stop-color="#B97F22"/></linearGradient><radialGradient id="glow" cx="0.16" cy="0.5" r="0.6"><stop offset="0" stop-color="#1B1D23"/><stop offset="1" stop-color="#0A0B0D"/></radialGradient></defs>
<rect width="1200" height="340" fill="#0A0B0D"/><rect width="1200" height="340" fill="url(#glow)"/>
<g transform="translate(18,13) scale(0.314)"><path d="M 940.2 500.0 L 939.9 516.3 L 938.7 532.5 L 936.7 548.6 L 934.0 564.6 L 930.5 580.5 L 926.3 596.1 L 921.5 611.6 L 916.1 626.8 L 910.3 641.7 L 903.9 656.5 L 897.2 671.0 L 890.1 685.3 L 882.7 699.4 L 874.9 713.4 L 866.8 727.1 L 858.4 740.7 L 849.6 754.0 L 840.5 767.2 L 830.9 780.0 L 820.9 792.6 L 810.4 804.7 L 799.4 816.5 L 787.9 827.7 L 775.8 838.4 L 763.2 848.5 L 750.0 857.9 L 736.5 866.6 L 722.4 874.5 L 708.0 881.7 L 693.3 888.1 L 678.2 893.8 L 663.0 898.8 L 647.7 903.1 L 632.2 906.9 L 616.7 910.1 L 601.1 912.9 L 585.6 915.2 L 570.0 917.2 L 554.5 918.9 L 538.9 920.3 L 523.4 921.3 L 507.8 922.1 L 492.2 922.6 L 476.5 922.7 L 460.9 922.4 L 445.1 921.7 L 429.4 920.5 L 413.7 918.7 L 398.0 916.2 L 382.5 913.1 L 367.0 909.3 L 351.8 904.7 L 336.7 899.4 L 322.0 893.3 L 307.5 886.6 L 293.4 879.1 L 279.7 870.9 L 266.4 862.2 L 253.5 852.8 L 241.0 843.0 L 228.9 832.7 L 217.3 821.9 L 206.0 810.8 L 195.2 799.3 L 184.7 787.4 L 174.7 775.2 L 165.1 762.8 L 155.9 750.0 L 147.2 736.9 L 138.9 723.6 L 131.0 710.0 L 123.7 696.1 L 116.9 682.0 L 110.6 667.6 L 104.9 653.1 L 99.7 638.3 L 95.0 623.4 L 90.9 608.3 L 87.2 593.1 L 84.1 577.7 L 81.4 562.3 L 79.1 546.9 L 77.3 531.3 L 75.8 515.7 L 74.8 500.0 L 74.1 484.3 L 73.8 468.4 L 73.9 452.6 L 74.5 436.6 L 75.6 420.7 L 77.2 404.7 L 79.4 388.7 L 82.3 372.8 L 85.8 356.9 L 90.1 341.2 L 95.2 325.7 L 101.2 310.5 L 107.9 295.6 L 115.4 281.1 L 123.7 267.0 L 132.8 253.4 L 142.6 240.3 L 153.0 227.8 L 164.0 215.7 L 175.5 204.2 L 187.4 193.2 L 199.7 182.6 L 212.4 172.5 L 225.2 162.8 L 238.3 153.5 L 251.6 144.5 L 265.1 135.9 L 278.8 127.6 L 292.7 119.6 L 306.8 112.0 L 321.1 104.8 L 335.7 98.0 L 350.4 91.7 L 365.5 86.0 L 380.8 80.9 L 396.3 76.5 L 412.0 72.9 L 427.8 70.0 L 443.8 68.0 L 459.9 66.9 L 476.0 66.6 L 492.0 67.2 L 508.0 68.7 L 523.8 70.9 L 539.5 73.8 L 555.0 77.4 L 570.2 81.6 L 585.3 86.3 L 600.1 91.4 L 614.7 96.9 L 629.1 102.8 L 643.3 108.9 L 657.3 115.3 L 671.1 122.0 L 684.8 128.9 L 698.3 136.0 L 711.7 143.5 L 725.0 151.2 L 738.0 159.3 L 750.9 167.8 L 763.5 176.6 L 775.9 185.9 L 788.0 195.6 L 799.7 205.7 L 811.2 216.3 L 822.2 227.4 L 832.9 238.8 L 843.1 250.7 L 852.9 263.0 L 862.3 275.7 L 871.2 288.7 L 879.7 302.1 L 887.8 315.8 L 895.4 329.8 L 902.5 344.1 L 909.1 358.7 L 915.2 373.5 L 920.7 388.7 L 925.6 404.0 L 929.9 419.6 L 933.5 435.4 L 936.3 451.4 L 938.4 467.5 L 939.7 483.7 L 940.2 500.0 Z" fill="none" stroke="url(#gold)" stroke-width="9" stroke-linejoin="round"/><path d="M 930.2 500.0 L 929.9 515.9 L 928.7 531.7 L 926.8 547.5 L 924.1 563.2 L 920.7 578.6 L 916.6 593.9 L 911.8 609.0 L 906.5 623.8 L 900.6 638.4 L 894.3 652.7 L 887.4 666.8 L 880.1 680.6 L 872.4 694.1 L 864.3 707.3 L 855.8 720.3 L 846.9 732.9 L 837.6 745.3 L 828.0 757.3 L 818.0 769.0 L 807.6 780.4 L 796.8 791.4 L 785.6 801.9 L 774.1 812.1 L 762.2 821.8 L 749.9 831.0 L 737.4 839.7 L 724.4 847.9 L 711.2 855.7 L 697.7 862.9 L 684.0 869.6 L 670.1 875.7 L 655.9 881.5 L 641.6 886.7 L 627.2 891.4 L 612.6 895.8 L 597.9 899.7 L 583.1 903.2 L 568.2 906.3 L 553.2 909.0 L 538.1 911.3 L 522.9 913.1 L 507.7 914.6 L 492.3 915.5 L 476.9 916.0 L 461.5 916.0 L 446.0 915.3 L 430.5 914.1 L 415.0 912.2 L 399.7 909.6 L 384.4 906.2 L 369.3 902.2 L 354.5 897.4 L 339.8 891.8 L 325.6 885.4 L 311.6 878.3 L 298.1 870.5 L 285.0 862.1 L 272.3 853.0 L 260.1 843.3 L 248.4 833.1 L 237.2 822.5 L 226.4 811.5 L 216.1 800.1 L 206.1 788.5 L 196.6 776.6 L 187.4 764.5 L 178.5 752.3 L 169.9 739.8 L 161.6 727.3 L 153.5 714.6 L 145.6 701.7 L 138.1 688.7 L 130.7 675.4 L 123.6 662.0 L 116.9 648.4 L 110.5 634.6 L 104.4 620.5 L 98.8 606.2 L 93.7 591.6 L 89.1 576.8 L 85.1 561.8 L 81.8 546.6 L 79.0 531.2 L 77.0 515.6 L 75.7 500.0 L 75.2 484.3 L 75.3 468.6 L 76.2 452.8 L 77.9 437.1 L 80.2 421.5 L 83.2 406.0 L 86.9 390.7 L 91.2 375.5 L 96.1 360.4 L 101.5 345.6 L 107.6 331.0 L 114.2 316.7 L 121.3 302.6 L 128.9 288.8 L 137.0 275.2 L 145.6 262.0 L 154.7 249.1 L 164.3 236.6 L 174.4 224.5 L 185.0 212.9 L 196.1 201.7 L 207.7 191.0 L 219.7 180.8 L 232.1 171.3 L 244.9 162.3 L 258.2 153.9 L 271.7 146.1 L 285.6 138.9 L 299.7 132.4 L 314.0 126.5 L 328.5 121.2 L 343.2 116.4 L 357.9 112.2 L 372.8 108.4 L 387.7 105.2 L 402.6 102.3 L 417.5 99.9 L 432.5 97.8 L 447.5 96.1 L 462.5 94.8 L 477.5 93.8 L 492.5 93.1 L 507.5 92.8 L 522.6 92.9 L 537.7 93.3 L 552.8 94.3 L 567.9 95.7 L 582.9 97.6 L 598.0 100.1 L 612.9 103.2 L 627.7 106.9 L 642.4 111.3 L 656.9 116.3 L 671.1 121.9 L 685.1 128.3 L 698.8 135.2 L 712.1 142.8 L 725.1 151.0 L 737.7 159.8 L 749.9 169.0 L 761.8 178.7 L 773.3 188.9 L 784.3 199.4 L 795.1 210.3 L 805.5 221.5 L 815.6 233.0 L 825.3 244.8 L 834.8 256.8 L 843.9 269.0 L 852.8 281.5 L 861.4 294.3 L 869.7 307.3 L 877.6 320.6 L 885.2 334.2 L 892.3 348.0 L 899.0 362.2 L 905.1 376.6 L 910.7 391.3 L 915.7 406.3 L 920.0 421.5 L 923.6 436.9 L 926.5 452.5 L 928.5 468.3 L 929.8 484.1 L 930.2 500.0 Z" fill="none" stroke="#C9962E" stroke-width="5" stroke-linejoin="round" opacity="0.8"/><g transform="translate(408 632) rotate(-7)"><text fill="none" stroke="#6E4A12" stroke-width="26" stroke-linejoin="round" stroke-linecap="round" x="0" y="0" text-anchor="middle" font-family="Poppins" font-size="372" font-weight="800">K</text><text fill="url(#gold)" x="0" y="0" text-anchor="middle" font-family="Poppins" font-size="372" font-weight="800">K</text></g><g transform="translate(612 626) rotate(6)"><text fill="none" stroke="#6E4A12" stroke-width="26" stroke-linejoin="round" stroke-linecap="round" x="0" y="0" text-anchor="middle" font-family="Poppins" font-size="360" font-weight="800">C</text><text fill="url(#gold)" x="0" y="0" text-anchor="middle" font-family="Poppins" font-size="360" font-weight="800">C</text></g></g>
<text x="360" y="108" font-family="Lato" font-size="20" font-weight="900" letter-spacing="5" fill="#E8B84B">BETTING PREMIER LEAGUE</text>
<text x="357" y="190" font-family="Lato" font-size="66" font-weight="900" fill="#F5F1E6">Capitals Quiz</text>
<rect x="362" y="212" width="104" height="5" rx="2.5" fill="url(#gold)"/>
<text x="360" y="258" font-family="Lato" font-size="24" font-weight="700" fill="#A2926A" letter-spacing="1">48 nations  ·  10s each  ·  one try</text>
<text x="359" y="306" font-family="URW Chancery L, TeX Gyre Chorus" font-style="italic" font-size="34" fill="#E8B84B">for the fun of it</text></svg>